<?xml version="1.0" encoding="UTF-8"?>
<svg xmlns="http://www.w3.org/2000/svg" width="16" height="16" viewBox="0 0 16 16">
  <path fill="currentColor" d="M2.75 2.5A1.25 1.25 0 0 0 1.5 3.75v8.5A1.25 1.25 0 0 0 2.75 13.5h1.5a.75.75 0 0 0 0-1.5h-1.5a.25.25 0 0 1-.25-.25v-8.5c0-.138.112-.25.25-.25h10.5c.138 0 .25.112.25.25v4.25a.75.75 0 0 0 1.5 0V3.75A1.25 1.25 0 0 0 13.25 2.5H2.75z"/>
  <path fill="currentColor" d="M5.25 5a.75.75 0 0 0-.75.75v1.5A.75.75 0 0 0 5.25 8h5.5a.75.75 0 0 0 .75-.75v-1.5A.75.75 0 0 0 10.75 5h-5.5zm.75 1.5h4v.5H6v-.5z"/>
  <path fill="currentColor" d="M10.5 9.5a3 3 0 1 0 3 3 3.003 3.003 0 0 0-3-3zm0 1.5a1.5 1.5 0 1 1-1.5 1.5A1.502 1.502 0 0 1 10.5 11z"/>
  <path fill="currentColor" d="M6.2 9.4a.75.75 0 0 0-1.06 0l-1.64 1.64a.75.75 0 0 0 1.06 1.06L6.2 10.46a.75.75 0 0 0 0-1.06z"/>
</svg>

